<svg xmlns="http://www.w3.org/2000/svg" xmlns:xlink="http://www.w3.org/1999/xlink" width="500" zoomAndPan="magnify" viewBox="0 0 375 374.999991" height="500" preserveAspectRatio="xMidYMid meet" version="1.0"><defs><clipPath id="61e698bb81"><path d="M 8.578125 19 L 281 19 L 281 367 L 8.578125 367 Z M 8.578125 19 " clip-rule="nonzero"/></clipPath><clipPath id="5fdc1ac7f1"><path d="M 8.578125 224 L 92 224 L 92 292 L 8.578125 292 Z M 8.578125 224 " clip-rule="nonzero"/></clipPath><clipPath id="98b932650a"><path d="M 125.546875 222.785156 L 173.632812 222.785156 L 173.632812 270.871094 L 125.546875 270.871094 Z M 125.546875 222.785156 " clip-rule="nonzero"/></clipPath><clipPath id="3ba2a625fa"><path d="M 149.589844 222.785156 C 136.3125 222.785156 125.546875 233.546875 125.546875 246.828125 C 125.546875 260.105469 136.3125 270.871094 149.589844 270.871094 C 162.867188 270.871094 173.632812 260.105469 173.632812 246.828125 C 173.632812 233.546875 162.867188 222.785156 149.589844 222.785156 Z M 149.589844 222.785156 " clip-rule="nonzero"/></clipPath></defs><rect x="-37.5" width="450" fill="#ffffff" y="-37.499999" height="449.999989" fill-opacity="1"/><rect x="-37.5" width="450" fill="#ffffff" y="-37.499999" height="449.999989" fill-opacity="1"/><path fill="#d6dae6" d="M 347.5 84.566406 C 339.367188 57.175781 325.710938 38.128906 306.902344 27.964844 C 271.027344 8.527344 225.472656 25.871094 193.554688 43.859375 C 193.011719 44.167969 192.507812 44.539062 192.054688 44.96875 C 191.601562 45.402344 191.207031 45.886719 190.875 46.417969 C 190.539062 46.949219 190.277344 47.511719 190.082031 48.109375 C 189.890625 48.707031 189.773438 49.316406 189.730469 49.941406 L 169.882812 354.867188 C 169.851562 355.3125 169.863281 355.753906 169.914062 356.195312 C 169.964844 356.636719 170.050781 357.070312 170.175781 357.5 C 170.304688 357.925781 170.46875 358.335938 170.667969 358.734375 C 170.867188 359.132812 171.097656 359.507812 171.363281 359.863281 C 171.632812 360.21875 171.925781 360.550781 172.25 360.855469 C 172.574219 361.160156 172.925781 361.433594 173.296875 361.675781 C 173.671875 361.917969 174.0625 362.125 174.472656 362.296875 C 174.882812 362.46875 175.304688 362.605469 175.738281 362.703125 C 186.367188 365.15625 197.136719 366.394531 208.046875 366.421875 C 210.988281 366.425781 213.921875 366.332031 216.855469 366.132812 C 219.789062 365.933594 222.714844 365.636719 225.625 365.238281 C 228.539062 364.839844 231.433594 364.34375 234.3125 363.746094 C 237.191406 363.148438 240.046875 362.453125 242.878906 361.65625 C 245.707031 360.863281 248.507812 359.976562 251.277344 358.988281 C 254.046875 358.003906 256.78125 356.921875 259.476562 355.75 C 262.171875 354.578125 264.824219 353.3125 267.429688 351.957031 C 270.039062 350.601562 272.597656 349.15625 275.105469 347.625 C 277.617188 346.09375 280.070312 344.476562 282.46875 342.777344 C 284.867188 341.078125 287.203125 339.296875 289.476562 337.4375 C 291.753906 335.578125 293.960938 333.640625 296.105469 331.628906 C 298.246094 329.617188 300.316406 327.53125 302.316406 325.378906 C 304.316406 323.222656 306.238281 321.003906 308.082031 318.71875 C 309.929688 316.429688 311.695312 314.082031 313.378906 311.675781 C 315.0625 309.269531 316.664062 306.804688 318.179688 304.289062 C 319.695312 301.769531 321.121094 299.203125 322.460938 296.585938 C 349.953125 246.113281 366.574219 148.878906 347.5 84.566406 Z M 347.5 84.566406 " fill-opacity="1" fill-rule="nonzero"/><path fill="#bcbfcc" d="M 288.992188 186.042969 C 278.238281 137.046875 251.378906 72.054688 211.671875 34.578125 C 205.296875 37.523438 199.207031 40.675781 193.554688 43.859375 C 193.011719 44.167969 192.507812 44.539062 192.054688 44.96875 C 191.601562 45.402344 191.207031 45.886719 190.875 46.417969 C 190.539062 46.949219 190.277344 47.511719 190.082031 48.109375 C 189.890625 48.707031 189.773438 49.316406 189.730469 49.941406 L 169.882812 354.867188 C 169.851562 355.3125 169.863281 355.753906 169.914062 356.195312 C 169.964844 356.636719 170.050781 357.070312 170.175781 357.5 C 170.304688 357.925781 170.46875 358.335938 170.667969 358.734375 C 170.867188 359.132812 171.097656 359.507812 171.363281 359.863281 C 171.632812 360.21875 171.925781 360.550781 172.25 360.855469 C 172.574219 361.160156 172.925781 361.433594 173.296875 361.675781 C 173.671875 361.917969 174.0625 362.125 174.472656 362.296875 C 174.882812 362.46875 175.304688 362.605469 175.738281 362.703125 C 186.367188 365.15625 197.136719 366.394531 208.046875 366.421875 C 211 366.421875 213.929688 366.328125 216.835938 366.132812 C 265.183594 343.382812 295.378906 297.015625 295.378906 238.226562 C 295.308594 226.410156 294.25 214.679688 292.203125 203.042969 C 291.488281 198.0625 290.464844 192.648438 288.992188 186.042969 Z M 288.992188 186.042969 " fill-opacity="1" fill-rule="nonzero"/><g clip-path="url(#61e698bb81)"><path fill="#eceff8" d="M 280.285156 238.226562 C 280.285156 313.71875 224.433594 366.4375 144.429688 366.4375 C 65.257812 366.4375 9.710938 314.777344 8.652344 240.488281 C 8.578125 239.734375 8.578125 238.980469 8.578125 238.226562 C 8.578125 233.925781 8.726562 229.476562 9.179688 224.726562 C 15.21875 147.34375 70.390625 19.507812 144.429688 19.507812 C 207.90625 19.507812 257.644531 113.632812 274.246094 189.277344 C 275.457031 194.707031 276.511719 199.988281 277.265625 205.191406 C 279.199219 216.117188 280.203125 227.128906 280.285156 238.226562 Z M 280.285156 238.226562 " fill-opacity="1" fill-rule="nonzero"/></g><path fill="#53687e" d="M 219.90625 140.179688 C 219.90625 141.664062 219.859375 143.140625 219.761719 144.617188 C 219.664062 146.089844 219.519531 147.554688 219.324219 149.007812 C 219.132812 150.460938 218.894531 151.898438 218.605469 153.316406 C 218.320312 154.734375 217.988281 156.128906 217.609375 157.496094 C 217.230469 158.867188 216.808594 160.203125 216.339844 161.511719 C 215.875 162.820312 215.367188 164.089844 214.816406 165.320312 C 214.269531 166.554688 213.679688 167.742188 213.054688 168.886719 C 212.425781 170.035156 211.761719 171.128906 211.0625 172.179688 C 210.363281 173.226562 209.632812 174.21875 208.867188 175.160156 C 208.105469 176.101562 207.3125 176.980469 206.488281 177.804688 C 205.667969 178.628906 204.820312 179.390625 203.949219 180.089844 C 203.074219 180.789062 202.183594 181.421875 201.269531 181.988281 C 200.355469 182.554688 199.425781 183.054688 198.480469 183.484375 C 197.535156 183.914062 196.574219 184.273438 195.605469 184.5625 C 194.636719 184.851562 193.660156 185.070312 192.675781 185.214844 C 191.691406 185.359375 190.703125 185.433594 189.714844 185.433594 C 188.726562 185.433594 187.742188 185.359375 186.757812 185.214844 C 185.773438 185.070312 184.796875 184.851562 183.828125 184.5625 C 182.855469 184.273438 181.898438 183.914062 180.953125 183.484375 C 180.007812 183.054688 179.078125 182.554688 178.164062 181.988281 C 177.25 181.421875 176.355469 180.789062 175.484375 180.089844 C 174.613281 179.390625 173.765625 178.628906 172.945312 177.804688 C 172.121094 176.980469 171.328125 176.101562 170.5625 175.160156 C 169.800781 174.21875 169.066406 173.226562 168.367188 172.179688 C 167.667969 171.128906 167.007812 170.035156 166.378906 168.886719 C 165.75 167.742188 165.164062 166.554688 164.613281 165.320312 C 164.066406 164.089844 163.558594 162.820312 163.089844 161.511719 C 162.625 160.203125 162.203125 158.867188 161.824219 157.496094 C 161.445312 156.128906 161.113281 154.734375 160.828125 153.316406 C 160.539062 151.898438 160.300781 150.460938 160.105469 149.007812 C 159.914062 147.554688 159.769531 146.089844 159.671875 144.617188 C 159.574219 143.140625 159.527344 141.664062 159.527344 140.179688 C 159.527344 138.699219 159.574219 137.21875 159.671875 135.746094 C 159.769531 134.269531 159.914062 132.804688 160.105469 131.351562 C 160.300781 129.898438 160.539062 128.460938 160.828125 127.042969 C 161.113281 125.625 161.445312 124.230469 161.824219 122.863281 C 162.203125 121.492188 162.625 120.15625 163.089844 118.847656 C 163.558594 117.542969 164.066406 116.273438 164.613281 115.039062 C 165.164062 113.808594 165.75 112.617188 166.378906 111.472656 C 167.007812 110.328125 167.667969 109.230469 168.367188 108.183594 C 169.066406 107.132812 169.800781 106.140625 170.5625 105.199219 C 171.328125 104.261719 172.121094 103.378906 172.945312 102.554688 C 173.765625 101.730469 174.613281 100.96875 175.484375 100.273438 C 176.355469 99.574219 177.25 98.941406 178.164062 98.375 C 179.078125 97.804688 180.007812 97.308594 180.953125 96.878906 C 181.898438 96.445312 182.855469 96.085938 183.828125 95.796875 C 184.796875 95.507812 185.773438 95.292969 186.757812 95.144531 C 187.742188 95 188.726562 94.929688 189.714844 94.929688 C 190.703125 94.929688 191.691406 95 192.675781 95.144531 C 193.660156 95.292969 194.636719 95.507812 195.605469 95.796875 C 196.574219 96.085938 197.535156 96.445312 198.480469 96.878906 C 199.425781 97.308594 200.355469 97.804688 201.269531 98.375 C 202.183594 98.941406 203.074219 99.574219 203.949219 100.273438 C 204.820312 100.96875 205.667969 101.730469 206.488281 102.554688 C 207.3125 103.378906 208.105469 104.261719 208.867188 105.199219 C 209.632812 106.140625 210.363281 107.132812 211.0625 108.183594 C 211.761719 109.230469 212.425781 110.328125 213.054688 111.472656 C 213.679688 112.617188 214.269531 113.808594 214.816406 115.039062 C 215.367188 116.273438 215.875 117.542969 216.339844 118.847656 C 216.808594 120.15625 217.230469 121.492188 217.609375 122.863281 C 217.988281 124.230469 218.320312 125.625 218.605469 127.042969 C 218.894531 128.460938 219.132812 129.898438 219.324219 131.351562 C 219.519531 132.804688 219.664062 134.269531 219.761719 135.746094 C 219.859375 137.21875 219.90625 138.699219 219.90625 140.179688 Z M 219.90625 140.179688 " fill-opacity="1" fill-rule="nonzero"/><path fill="#53687e" d="M 129.335938 140.179688 C 129.335938 141.664062 129.289062 143.140625 129.191406 144.617188 C 129.09375 146.089844 128.949219 147.554688 128.757812 149.007812 C 128.5625 150.460938 128.324219 151.898438 128.035156 153.316406 C 127.75 154.734375 127.417969 156.128906 127.039062 157.496094 C 126.660156 158.867188 126.238281 160.203125 125.773438 161.511719 C 125.304688 162.820312 124.796875 164.089844 124.25 165.320312 C 123.699219 166.554688 123.109375 167.742188 122.484375 168.886719 C 121.855469 170.035156 121.191406 171.128906 120.492188 172.179688 C 119.796875 173.226562 119.0625 174.21875 118.300781 175.160156 C 117.535156 176.101562 116.742188 176.980469 115.917969 177.804688 C 115.097656 178.628906 114.25 179.390625 113.378906 180.089844 C 112.507812 180.789062 111.613281 181.421875 110.699219 181.988281 C 109.785156 182.554688 108.855469 183.054688 107.910156 183.484375 C 106.964844 183.914062 106.007812 184.273438 105.035156 184.5625 C 104.066406 184.851562 103.089844 185.070312 102.105469 185.214844 C 101.121094 185.359375 100.136719 185.433594 99.148438 185.433594 C 98.15625 185.433594 97.171875 185.359375 96.1875 185.214844 C 95.203125 185.070312 94.226562 184.851562 93.257812 184.5625 C 92.289062 184.273438 91.328125 183.914062 90.382812 183.484375 C 89.4375 183.054688 88.507812 182.554688 87.59375 181.988281 C 86.679688 181.421875 85.789062 180.789062 84.914062 180.089844 C 84.042969 179.390625 83.195312 178.628906 82.375 177.804688 C 81.550781 176.980469 80.757812 176.101562 79.996094 175.160156 C 79.230469 174.21875 78.5 173.226562 77.800781 172.179688 C 77.101562 171.128906 76.4375 170.035156 75.808594 168.886719 C 75.183594 167.742188 74.59375 166.554688 74.042969 165.320312 C 73.496094 164.089844 72.988281 162.820312 72.523438 161.511719 C 72.054688 160.203125 71.632812 158.867188 71.253906 157.496094 C 70.875 156.128906 70.542969 154.734375 70.257812 153.316406 C 69.96875 151.898438 69.730469 150.460938 69.535156 149.007812 C 69.34375 147.554688 69.199219 146.089844 69.101562 144.617188 C 69.003906 143.140625 68.957031 141.664062 68.957031 140.179688 C 68.957031 138.699219 69.003906 137.21875 69.101562 135.746094 C 69.199219 134.269531 69.34375 132.804688 69.535156 131.351562 C 69.730469 129.898438 69.96875 128.460938 70.257812 127.042969 C 70.542969 125.625 70.875 124.230469 71.253906 122.863281 C 71.632812 121.492188 72.054688 120.15625 72.523438 118.847656 C 72.988281 117.542969 73.496094 116.273438 74.042969 115.039062 C 74.59375 113.808594 75.183594 112.617188 75.808594 111.472656 C 76.4375 110.328125 77.101562 109.230469 77.800781 108.183594 C 78.5 107.132812 79.230469 106.140625 79.996094 105.199219 C 80.757812 104.261719 81.550781 103.378906 82.375 102.554688 C 83.195312 101.730469 84.042969 100.96875 84.914062 100.273438 C 85.789062 99.574219 86.679688 98.941406 87.59375 98.375 C 88.507812 97.804688 89.4375 97.308594 90.382812 96.878906 C 91.328125 96.445312 92.289062 96.085938 93.257812 95.796875 C 94.226562 95.507812 95.203125 95.292969 96.1875 95.144531 C 97.171875 95 98.15625 94.929688 99.148438 94.929688 C 100.136719 94.929688 101.121094 95 102.105469 95.144531 C 103.089844 95.292969 104.066406 95.507812 105.035156 95.796875 C 106.007812 96.085938 106.964844 96.445312 107.910156 96.878906 C 108.855469 97.308594 109.785156 97.804688 110.699219 98.375 C 111.613281 98.941406 112.507812 99.574219 113.378906 100.273438 C 114.25 100.96875 115.097656 101.730469 115.917969 102.554688 C 116.742188 103.378906 117.535156 104.261719 118.300781 105.199219 C 119.0625 106.140625 119.796875 107.132812 120.492188 108.183594 C 121.191406 109.230469 121.855469 110.328125 122.484375 111.472656 C 123.109375 112.617188 123.699219 113.808594 124.25 115.039062 C 124.796875 116.273438 125.304688 117.542969 125.773438 118.847656 C 126.238281 120.15625 126.660156 121.492188 127.039062 122.863281 C 127.417969 124.230469 127.75 125.625 128.035156 127.042969 C 128.324219 128.460938 128.5625 129.898438 128.757812 131.351562 C 128.949219 132.804688 129.09375 134.269531 129.191406 135.746094 C 129.289062 137.21875 129.335938 138.699219 129.335938 140.179688 Z M 129.335938 140.179688 " fill-opacity="1" fill-rule="nonzero"/><path fill="#53687e" d="M 144.429688 192.972656 C 143.441406 192.976562 142.457031 193.023438 141.472656 193.121094 C 140.488281 193.21875 139.511719 193.367188 138.542969 193.558594 C 137.574219 193.753906 136.617188 193.992188 135.671875 194.28125 C 134.726562 194.566406 133.796875 194.898438 132.882812 195.277344 C 131.96875 195.65625 131.078125 196.078125 130.207031 196.546875 C 129.335938 197.011719 128.488281 197.519531 127.667969 198.066406 C 126.84375 198.617188 126.050781 199.203125 125.289062 199.832031 C 124.523438 200.457031 123.792969 201.121094 123.09375 201.820312 C 122.394531 202.515625 121.730469 203.25 121.105469 204.011719 C 120.476562 204.773438 119.886719 205.566406 119.339844 206.390625 C 118.789062 207.210938 118.28125 208.054688 117.816406 208.925781 C 117.347656 209.796875 116.925781 210.691406 116.546875 211.601562 C 116.167969 212.515625 115.835938 213.441406 115.546875 214.386719 C 115.261719 215.332031 115.019531 216.289062 114.828125 217.257812 C 114.632812 218.226562 114.488281 219.203125 114.390625 220.1875 C 114.292969 221.167969 114.242188 222.152344 114.242188 223.140625 L 114.242188 275.933594 C 114.242188 276.429688 114.289062 276.921875 114.386719 277.40625 C 114.484375 277.890625 114.625 278.363281 114.816406 278.820312 C 115.003906 279.277344 115.238281 279.714844 115.511719 280.125 C 115.789062 280.539062 116.101562 280.917969 116.453125 281.269531 C 116.800781 281.617188 117.183594 281.929688 117.59375 282.207031 C 118.007812 282.480469 118.441406 282.714844 118.902344 282.902344 C 119.359375 283.09375 119.832031 283.234375 120.316406 283.332031 C 120.800781 283.429688 121.292969 283.476562 121.789062 283.476562 L 167.074219 283.476562 C 167.570312 283.476562 168.058594 283.429688 168.546875 283.332031 C 169.03125 283.234375 169.503906 283.09375 169.960938 282.902344 C 170.421875 282.714844 170.855469 282.480469 171.265625 282.207031 C 171.679688 281.929688 172.0625 281.617188 172.410156 281.269531 C 172.761719 280.917969 173.074219 280.539062 173.351562 280.125 C 173.625 279.714844 173.859375 279.277344 174.046875 278.820312 C 174.238281 278.363281 174.378906 277.890625 174.476562 277.40625 C 174.574219 276.921875 174.621094 276.429688 174.621094 275.933594 L 174.621094 223.140625 C 174.621094 222.152344 174.570312 221.167969 174.472656 220.1875 C 174.375 219.203125 174.230469 218.226562 174.035156 217.257812 C 173.84375 216.289062 173.601562 215.332031 173.3125 214.386719 C 173.027344 213.441406 172.695312 212.515625 172.316406 211.601562 C 171.9375 210.691406 171.511719 209.796875 171.046875 208.925781 C 170.582031 208.054688 170.074219 207.210938 169.523438 206.390625 C 168.972656 205.566406 168.386719 204.773438 167.757812 204.011719 C 167.132812 203.25 166.46875 202.515625 165.769531 201.820312 C 165.070312 201.121094 164.339844 200.457031 163.574219 199.832031 C 162.8125 199.203125 162.019531 198.617188 161.195312 198.066406 C 160.375 197.519531 159.527344 197.011719 158.65625 196.546875 C 157.785156 196.078125 156.894531 195.65625 155.980469 195.277344 C 155.066406 194.898438 154.136719 194.566406 153.191406 194.28125 C 152.246094 193.992188 151.289062 193.753906 150.320312 193.558594 C 149.351562 193.367188 148.375 193.21875 147.390625 193.121094 C 146.40625 193.023438 145.421875 192.976562 144.429688 192.972656 Z M 144.429688 192.972656 " fill-opacity="1" fill-rule="nonzero"/><g clip-path="url(#5fdc1ac7f1)"><path fill="#d6dae6" d="M 91.371094 285.289062 C 91.253906 285.769531 91.089844 286.234375 90.882812 286.683594 C 90.671875 287.132812 90.421875 287.554688 90.128906 287.953125 C 89.835938 288.351562 89.503906 288.71875 89.136719 289.054688 C 88.773438 289.386719 88.378906 289.683594 87.953125 289.9375 C 87.527344 290.195312 87.082031 290.40625 86.617188 290.574219 C 86.152344 290.742188 85.671875 290.863281 85.183594 290.9375 C 84.691406 291.007812 84.199219 291.035156 83.703125 291.011719 C 83.210938 290.984375 82.722656 290.914062 82.242188 290.792969 L 52.050781 283.25 C 51.382812 283.085938 50.753906 282.832031 50.15625 282.496094 C 49.558594 282.15625 49.015625 281.746094 48.53125 281.261719 C 48.046875 280.777344 47.632812 280.234375 47.296875 279.640625 C 46.957031 279.042969 46.707031 278.410156 46.539062 277.746094 L 39.972656 251.5 L 8.652344 240.488281 C 8.484375 235.222656 8.664062 229.96875 9.179688 224.726562 L 48.804688 238.679688 C 49.398438 238.878906 49.957031 239.148438 50.480469 239.492188 C 51.003906 239.832031 51.476562 240.234375 51.898438 240.695312 C 52.324219 241.15625 52.679688 241.664062 52.972656 242.21875 C 53.269531 242.769531 53.488281 243.347656 53.636719 243.957031 L 60.050781 269.75 L 85.863281 276.160156 C 86.34375 276.28125 86.808594 276.445312 87.257812 276.65625 C 87.703125 276.867188 88.128906 277.117188 88.527344 277.410156 C 88.925781 277.703125 89.292969 278.035156 89.625 278.398438 C 89.957031 278.765625 90.253906 279.160156 90.507812 279.585938 C 90.765625 280.007812 90.976562 280.453125 91.144531 280.917969 C 91.3125 281.382812 91.433594 281.859375 91.507812 282.351562 C 91.582031 282.839844 91.609375 283.332031 91.585938 283.824219 C 91.5625 284.320312 91.492188 284.808594 91.371094 285.289062 Z M 91.371094 285.289062 " fill-opacity="1" fill-rule="nonzero"/></g><path fill="#d6dae6" d="M 249.71875 243.355469 C 249.933594 244.023438 250.054688 244.707031 250.085938 245.410156 C 250.113281 246.113281 250.050781 246.804688 249.890625 247.488281 C 249.730469 248.171875 249.480469 248.824219 249.144531 249.441406 C 248.808594 250.058594 248.394531 250.617188 247.90625 251.121094 L 217.71875 281.289062 C 217.367188 281.640625 216.984375 281.953125 216.570312 282.230469 C 216.15625 282.507812 215.71875 282.738281 215.257812 282.929688 C 214.800781 283.117188 214.324219 283.261719 213.835938 283.359375 C 213.351562 283.457031 212.855469 283.503906 212.359375 283.503906 C 211.863281 283.503906 211.371094 283.453125 210.882812 283.359375 C 210.394531 283.261719 209.921875 283.117188 209.460938 282.925781 C 209 282.738281 208.566406 282.503906 208.152344 282.226562 C 207.738281 281.949219 207.355469 281.636719 207.003906 281.285156 C 206.652344 280.933594 206.339844 280.550781 206.0625 280.140625 C 205.785156 279.726562 205.550781 279.289062 205.363281 278.832031 C 205.171875 278.371094 205.027344 277.898438 204.929688 277.410156 C 204.832031 276.921875 204.785156 276.429688 204.785156 275.933594 C 204.785156 275.4375 204.832031 274.945312 204.929688 274.457031 C 205.027344 273.96875 205.167969 273.496094 205.359375 273.039062 C 205.550781 272.578125 205.78125 272.140625 206.058594 271.726562 C 206.335938 271.316406 206.648438 270.933594 207 270.582031 L 233.945312 243.730469 L 227.832031 225.554688 C 227.570312 224.757812 227.445312 223.9375 227.457031 223.101562 C 227.46875 222.261719 227.613281 221.445312 227.890625 220.65625 C 228.171875 219.863281 228.570312 219.140625 229.089844 218.480469 C 229.609375 217.820312 230.222656 217.261719 230.925781 216.804688 L 274.246094 189.277344 C 275.457031 194.707031 276.511719 199.988281 277.265625 205.191406 L 244.058594 226.308594 Z M 249.71875 243.355469 " fill-opacity="1" fill-rule="nonzero"/><g clip-path="url(#98b932650a)"><g clip-path="url(#3ba2a625fa)"><path fill="#53687e" d="M 125.546875 222.785156 L 173.632812 222.785156 L 173.632812 270.871094 L 125.546875 270.871094 Z M 125.546875 222.785156 " fill-opacity="1" fill-rule="nonzero"/></g></g></svg>